<svg width="56" height="56" viewBox="0 0 56 56" fill="none" xmlns="http://www.w3.org/2000/svg">
<mask id="mask0_8974_1843" style="mask-type:alpha" maskUnits="userSpaceOnUse" x="0" y="0" width="56" height="56">
<path d="M28 56C43.464 56 56 43.464 56 28C56 12.536 43.464 0 28 0C12.536 0 0 12.536 0 28C0 43.464 12.536 56 28 56Z" fill="#0000CB"/>
</mask>
<g mask="url(#mask0_8974_1843)">
<path d="M28 56C43.464 56 56 43.464 56 28C56 12.536 43.464 0 28 0C12.536 0 0 12.536 0 28C0 43.464 12.536 56 28 56Z" fill="url(#paint0_radial_8974_1843)"/>
<path fill-rule="evenodd" clip-rule="evenodd" d="M-35.4667 -47.9111V79.0222L59.7333 15.5556L-35.4667 -47.9111Z" fill="url(#paint1_radial_8974_1843)"/>
<path d="M28 56C43.464 56 56 43.464 56 28C56 12.536 43.464 0 28 0C12.536 0 0 12.536 0 28C0 43.464 12.536 56 28 56Z" fill="url(#paint2_radial_8974_1843)"/>
<path fill-rule="evenodd" clip-rule="evenodd" d="M115.733 -49.1555V77.7778L20.5333 14.3111L115.733 -49.1555Z" fill="url(#paint3_radial_8974_1843)"/>
<path fill-rule="evenodd" clip-rule="evenodd" d="M20.5333 14.3111V41.6889L41.0667 28L20.5333 14.3111Z" fill="url(#paint4_linear_8974_1843)"/>
<path d="M28 55.3778C43.1203 55.3778 55.3778 43.1203 55.3778 28C55.3778 12.8797 43.1203 0.622223 28 0.622223C12.8797 0.622223 0.622223 12.8797 0.622223 28C0.622223 43.1203 12.8797 55.3778 28 55.3778Z" stroke="url(#paint5_linear_8974_1843)" stroke-width="1.42222"/>
</g>
<defs>
<radialGradient id="paint0_radial_8974_1843" cx="0" cy="0" r="1" gradientUnits="userSpaceOnUse" gradientTransform="translate(-10.2667 66.2667) rotate(-45) scale(124.074)">
<stop offset="0.0628539" stop-color="#FF9600"/>
<stop offset="0.351864" stop-color="#E80000"/>
</radialGradient>
<radialGradient id="paint1_radial_8974_1843" cx="0" cy="0" r="1" gradientUnits="userSpaceOnUse" gradientTransform="translate(15.5556 70) rotate(-90) scale(52.5778)">
<stop stop-color="#960000"/>
<stop offset="1" stop-color="#FF0000"/>
</radialGradient>
<radialGradient id="paint2_radial_8974_1843" cx="0" cy="0" r="1" gradientUnits="userSpaceOnUse" gradientTransform="rotate(45) scale(79.196 105.595)">
<stop offset="0.157135" stop-color="#FF0064"/>
<stop offset="0.528596" stop-color="#D00000" stop-opacity="0"/>
</radialGradient>
<radialGradient id="paint3_radial_8974_1843" cx="0" cy="0" r="1" gradientUnits="userSpaceOnUse" gradientTransform="translate(20.5333 5.60001) rotate(90) scale(36.4 42.4667)">
<stop stop-color="#4200FF"/>
<stop offset="1" stop-color="#84007A" stop-opacity="0"/>
</radialGradient>
<linearGradient id="paint4_linear_8974_1843" x1="30.8747" y1="14.4293" x2="30.8747" y2="41.8071" gradientUnits="userSpaceOnUse">
<stop stop-color="white"/>
<stop offset="0.62" stop-color="#FDFEFE"/>
<stop offset="0.85" stop-color="#F6F9FB"/>
<stop offset="1" stop-color="#EBF0F5"/>
</linearGradient>
<linearGradient id="paint5_linear_8974_1843" x1="44.2276" y1="11.4116" x2="11.3742" y2="44.2649" gradientUnits="userSpaceOnUse">
<stop stop-color="white" stop-opacity="0"/>
<stop offset="0.5" stop-color="white" stop-opacity="0.5"/>
<stop offset="1" stop-color="white" stop-opacity="0"/>
</linearGradient>
</defs>
</svg>
