<svg width="32" height="32" viewBox="0 0 32 32" fill="none" xmlns="http://www.w3.org/2000/svg">
<path fill-rule="evenodd" clip-rule="evenodd" d="M21.4578 6.11084C21.7908 6.28224 22.0002 6.62542 22.0002 7V25C22.0002 25.3746 21.7908 25.7178 21.4577 25.8892C21.1247 26.0606 20.7237 26.0315 20.4189 25.8137L13.6795 21H9C8.44772 21 8 20.5523 8 20V12C8 11.4477 8.44772 11 9 11H13.6795L20.4189 6.18626C20.7238 5.96854 21.1247 5.93943 21.4578 6.11084ZM13 13H10V19H13V13ZM15 19.4854L20.0002 23.0568V8.94316L15 12.5146V19.4854Z" fill="white"/>
</svg>
